<svg width="46" height="46" viewBox="0 0 46 46" fill="none" xmlns="http://www.w3.org/2000/svg">
<path d="M44.8462 17.3318L41.627 18.9799C42.4331 23.0205 41.9402 27.3486 40.02 31.2351C37.1038 37.1343 31.2766 41.3084 24.4635 41.9142C24.4635 41.8885 24.4687 38.4076 24.4687 38.3819C25.6803 38.2484 26.856 37.9814 27.9702 37.5861V37.6015C30.7683 36.6157 33.2892 34.8342 35.1888 32.3903C35.9024 31.4713 36.5185 30.4701 37.0166 29.4074C37.4581 28.473 37.7918 27.5026 38.0331 26.522L27.6364 26.5271C24.8845 30.1929 19.7812 29.9465 17.2757 26.6144C15.8073 24.6583 15.5763 22.0809 16.675 19.8784C19.391 14.4362 27.2565 15.4938 28.6735 21.203H25.3107C23.7088 18.5743 19.7093 19.7295 19.7093 22.7535C19.7093 25.7827 23.7139 26.9276 25.3107 24.304H31.8362C32.7398 18.066 27.9599 13.2142 22.4817 13.2142C13.6612 13.2142 9.77982 23.7136 15.756 29.5665C19.4526 33.1861 25.3107 33.2015 29.0278 29.6281H32.8014C26.0654 39.4601 10.5551 34.7212 10.5551 22.7484C10.5551 16.0175 16.0127 10.5599 22.7436 10.5599C29.726 10.5599 35.3377 16.4333 34.9064 23.498H38.4695C38.5722 21.3467 38.2385 19.1904 37.4735 17.1778C40.8672 15.4425 39.6606 16.0585 43.732 13.9741C37.4478 -1.00741 18.0047 -4.76561 6.60177 6.73491L9.68741 8.61915C18.5284 0.435293 32.5601 2.30413 39.0086 12.4595C38.9932 12.4646 35.8819 14.0614 35.8716 14.0665C35.2042 13.0653 34.4289 12.1412 33.5613 11.3197L33.5664 11.3146C26.8252 4.92769 16.0435 5.71835 10.3086 13.1013C6.65312 10.8679 8.30632 11.8793 4.31194 9.44061C-0.4577 16.0123 -1.21242 24.4272 1.76026 31.5175C2.21206 32.6008 2.75115 33.6379 3.36212 34.6288C6.48369 39.7014 11.5203 43.4493 17.4554 44.8715L17.4605 41.2519C12.85 39.9324 8.96862 36.9443 6.48369 33.027C2.79223 27.2151 2.60226 20.0683 5.47739 14.2462C5.49279 14.2565 8.47061 16.074 8.49115 16.0842C7.988 17.1573 7.60294 18.297 7.3565 19.4882L7.34109 19.4779C6.72499 22.3992 6.94576 25.4797 8.0188 28.3087C10.0879 33.7611 15.068 37.7196 20.9672 38.387C20.962 42.6997 20.962 41.103 20.9518 45.4157C28.4322 46.0626 36.3183 42.7665 41.1855 36.0458C41.8683 35.1012 42.4793 34.1051 43.0133 33.0629C45.5187 28.1752 46.1297 22.5738 44.8462 17.3318Z" fill="url(#paint0_linear)"/>
<defs>
<linearGradient id="paint0_linear" x1="22.7482" y1="45.4992" x2="22.7482" y2="-0.00111193" gradientUnits="userSpaceOnUse">
<stop stop-color="#39BFF0"/>
<stop offset="0.469" stop-color="#3D4E9D"/>
<stop offset="0.6499" stop-color="#383A8C"/>
<stop offset="0.8722" stop-color="#312A7F"/>
<stop offset="0.9997" stop-color="#2E247A"/>
<stop offset="1" stop-color="#2E247A"/>
</linearGradient>
</defs>
</svg>
